<?xml version='1.0' encoding='utf-8'?>
<svg xmlns="http://www.w3.org/2000/svg" width="1920" height="1080" viewBox="0 0 1920 1080" data-theme="light">
  <style>
        @font-face {
            font-family: 'Inter';
            src: url('assets/fonts/Inter-Regular.ttf') format('truetype');
            font-weight: 400;
            font-style: normal;
            font-display: swap;
        }
        @font-face {
            font-family: 'Inter';
            src: url('assets/fonts/Inter-Bold.ttf') format('truetype');
            font-weight: 600;
            font-style: normal;
            font-display: swap;
        }
        @font-face {
            font-family: 'Inter';
            src: url('assets/fonts/Inter-Bold.ttf') format('truetype');
            font-weight: 800;
            font-style: normal;
            font-display: swap;
        }
        
:root {
    --background: #f8fafc;
    --panel: #ffffff;
    --primary-text: #0f172a;
    --muted-text: #64748b;
    --inverse-text: #ffffff;
    --border: #e2e8f0;
    --shadow-color: #000000;
    --icon-pad-bg: #1e293b;
    --art-glow: #0891b2;
    --art-glow-opacity: 0.10;
    --art-sheen: #ffffff;
    --art-sheen-opacity: 0.34;
    --art-shadow: #0f172a;
    --art-shadow-opacity: 0.14;
    --art-muted-line: #94a3b8;
    --art-panel-tint: #f1f5f9;
    --font-family: 'Inter', 'Segoe UI', 'Kalam', Roboto, Helvetica, Arial, sans-serif;
    --radius-xl: 16px;
    --font-family-headline: 'Inter', 'Segoe UI', 'Kalam', Roboto, Helvetica, Arial, sans-serif;
    --font-family-body: 'Inter', 'Segoe UI', 'Kalam', Roboto, Helvetica, Arial, sans-serif;
    --font-heading: 'Inter', 'Segoe UI', 'Kalam', Roboto, Helvetica, Arial, sans-serif;
    --font-body: 'Inter', 'Segoe UI', 'Kalam', Roboto, Helvetica, Arial, sans-serif;
    --font-size-h1: 56px;
    --font-size-h2: 40px;
    --font-size-h3: 28px;
    --font-size-body: 24px;
    --font-size-caption: 18px;
    --secondary-text: var(--muted-text);
    --panel-border: var(--border);
    --font-weight-normal: 400;
    --font-weight-medium: 500;
    --font-weight-semibold: 600;
    --font-weight-bold: 700;
    --spacing-gutter-pct: 0.07;
    --spacing-top-pct: 0.15;
    --spacing-bottom-pct: 0.07;
    --spacing-title-y-pct: 0.055;
    --accent-1: #4f46e5;
    --accent-2: #059669;
    --accent-3: #db2777;
    --accent-4: #d97706;
    --accent-5: #0284c7;
    --accent-6: #7c3aed;
    --accent-7: #dc2626;
    --accent-8: #0d9488;
    --accent-9: #ea580c;
    --accent-10: #c026d3;
}
:root[data-theme="dark"] {
    --background: #0f172a;
    --panel: #1e293b;
    --primary-text: #f1f5f9;
    --muted-text: #94a3b8;
    --inverse-text: #0f172a;
    --border: #334155;
    --shadow-color: #000000;
    --icon-pad-bg: #1e293b;
    --art-glow: #7dd3fc;
    --art-glow-opacity: 0.18;
    --art-sheen: #ffffff;
    --art-sheen-opacity: 0.18;
    --art-shadow: #000000;
    --art-shadow-opacity: 0.28;
    --art-muted-line: #64748b;
    --art-panel-tint: #1e293b;
    --accent-1: #a5b4fc;
    --accent-2: #34d399;
    --accent-3: #f472b6;
    --accent-4: #fbbf24;
    --accent-5: #38bdf8;
    --accent-6: #c084fc;
    --accent-7: #f87171;
    --accent-8: #2dd4bf;
    --accent-9: #fb923c;
    --accent-10: #e879f9;
}
:root[data-theme="light"] {
    --background: #f8fafc;
    --panel: #ffffff;
    --primary-text: #0f172a;
    --muted-text: #64748b;
    --inverse-text: #ffffff;
    --border: #e2e8f0;
    --shadow-color: #000000;
    --icon-pad-bg: #1e293b;
    --art-glow: #0891b2;
    --art-glow-opacity: 0.10;
    --art-sheen: #ffffff;
    --art-sheen-opacity: 0.34;
    --art-shadow: #0f172a;
    --art-shadow-opacity: 0.14;
    --art-muted-line: #94a3b8;
    --art-panel-tint: #f1f5f9;
    --accent-1: #4f46e5;
    --accent-2: #059669;
    --accent-3: #db2777;
    --accent-4: #d97706;
    --accent-5: #0284c7;
    --accent-6: #7c3aed;
    --accent-7: #dc2626;
    --accent-8: #0d9488;
    --accent-9: #ea580c;
    --accent-10: #c026d3;
}</style>
  <rect x="0" y="0" width="1.92E+3" height="1.08E+3" fill="#252a34" stroke="none" id="programmatic_background"/>
  <line id="HEADER_DECOR" x1="960.0" x2="1080.0" y1="135.0" y2="135.0" stroke="var(--accent-1)" stroke-width="6" stroke-linecap="round"/>
  <defs>
    <pattern id="svgf709bc95-napkin-hatch" patternUnits="userSpaceOnUse" width="12" height="12">
      <path d="M -3 12 L 12 -3 M 0 15 L 15 0" fill="none" stroke="var(--primary-text)" stroke-width="1" stroke-opacity="0.05"/>
    </pattern>
    <filter id="svgf709bc95-shadow" x="-30%" y="-30%" width="160%" height="160%">
      <feDropShadow dx="0" dy="2" stdDeviation="3" flood-color="#000000" flood-opacity="0.08"/>
      <feDropShadow dx="0" dy="6" stdDeviation="10" flood-color="#000000" flood-opacity="0.12"/>
    </filter>
    <marker id="svgf709bc95-arrowhead" markerWidth="10" markerHeight="10" refX="9" refY="5" orient="auto">
      <path d="M 0 0 L 10 5 L 0 10 Z" fill="var(--accent-1)"/>
    </marker>
    <filter id="svgf709bc95-text-glow" x="-20%" y="-20%" width="140%" height="140%">
      <feDropShadow dx="0" dy="0" stdDeviation="2" flood-color="#000000" flood-opacity="0.4"/>
    </filter>
    <radialGradient id="svgf709bc95-universal-edge-vignette" cx="50%" cy="50%" r="72%">
      <stop offset="0%" stop-color="var(--background)" stop-opacity="0"/>
      <stop offset="72%" stop-color="var(--background)" stop-opacity="0.12"/>
      <stop offset="100%" stop-color="var(--primary-text)" stop-opacity="0.08"/>
    </radialGradient>
    <linearGradient id="svgf709bc95-universal-surface-sheen" x1="0%" y1="0%" x2="100%" y2="100%">
      <stop offset="0%" stop-color="var(--art-sheen)" stop-opacity="var(--art-sheen-opacity)"/>
      <stop offset="46%" stop-color="var(--art-sheen)" stop-opacity="0.035"/>
      <stop offset="100%" stop-color="var(--art-panel-tint)" stop-opacity="0.14"/>
    </linearGradient>
    <radialGradient id="svgf709bc95-universal-icon-aura" cx="50%" cy="42%" r="64%">
      <stop offset="0%" stop-color="var(--art-glow)" stop-opacity="var(--art-glow-opacity)"/>
      <stop offset="100%" stop-color="var(--background)" stop-opacity="0"/>
    </radialGradient>
    <linearGradient id="svgf709bc95-myth-card-sheen" x1="0%" y1="0%" x2="100%" y2="100%">
      <stop offset="0%" stop-color="var(--inverse-text)" stop-opacity="0.18"/>
      <stop offset="56%" stop-color="var(--inverse-text)" stop-opacity="0.03"/>
      <stop offset="100%" stop-color="var(--background)" stop-opacity="0.12"/>
    </linearGradient>
  </defs>
  <rect width="100%" height="100%" fill="var(--background)" id="CANVAS_BG"/>
  <rect width="100%" height="100%" fill="url(#svgf709bc95-napkin-hatch)"/>
  <rect id="UNIVERSAL_EDGE_VIGNETTE" width="100%" height="100%" fill="url(#svgf709bc95-universal-edge-vignette)" opacity="0.62"/>
  <text id="TITLE" x="960.0" y="59" text-anchor="middle" font-weight="800" font-size="56" fill="#0f172a" style="font-size: 60px; font-family: Inter, Segoe UI, Kalam, Roboto, Helvetica, Arial, sans-serif; font-weight: 700; letter-spacing:-1.2px;" data-final-font-size="60">
    <tspan x="960.0" dy="68.00px">Blade Slap vs UFO</tspan>
  </text>
  <rect id="TITLE_FRAME" x="134" y="59" width="1652" height="103" fill="none"/>
  <g transform="translate(0, 190) scale(1.0)">
    <path d="M 920 -8 C 950 80 950 720 920 808" stroke="var(--primary-text)" stroke-width="2" stroke-opacity="0.10" fill="none"/>
    <path d="M 1000 -8 C 970 80 970 720 1000 808" stroke="var(--primary-text)" stroke-width="2" stroke-opacity="0.10" fill="none"/>
    <text x="480.0" y="0" text-anchor="middle" font-weight="900" font-size="52" fill="var(--accent-1)">MYTHS</text>
    <text x="1440.0" y="0" text-anchor="middle" font-weight="900" font-size="52" fill="var(--accent-2)">REALITY</text>
    <g transform="translate(480.0, 200.0)">
      <rect id="ITEM_1_ACCENT_BG" x="-400" y="-180.0" width="800" height="395.0" rx="24" fill="var(--accent-7)" fill-opacity="1.0"/>
      <rect id="ITEM_1_BG" x="-400" y="-180.0" width="800" height="395.0" rx="24" fill="var(--panel)" stroke="var(--accent-1)" filter="url(#svgf709bc95-shadow)" stroke-width="3"/>
      <rect x="-388" y="-168.0" width="776" height="371.0" rx="22" fill="url(#svgf709bc95-myth-card-sheen)" opacity="0.92"/>
      <circle id="ITEM_1_PAD" cx="-330" cy="-100" r="50" fill="var(--icon-pad-bg)" stroke="var(--background)" stroke-width="2" stroke-opacity="0.65" opacity="0.94" fill-opacity="0.9"/>
      <circle id="ITEM_1_PAD_INNER" cx="-330" cy="-100" r="39.00" fill="var(--accent-7)" fill-opacity="0.22"/>
      <circle cx="-330" cy="-100" r="36" fill="none" stroke="var(--accent-1)" stroke-width="3" stroke-dasharray="6 4"/>
      <g id="ITEM_1_ICON" transform="translate(-360, -130)" data-icon-size="60" stroke-dasharray="6 4">
        <g transform="translate(-14.571428571428571,-13.875) scale(3.7142857142857144)" vector-effect="non-scaling-stroke" stroke-width="2.43" stroke-linecap="round" stroke-linejoin="round" stroke-opacity="1.0">
          <path d="M12 13m-3 0a3 3 0 1 0 6 0a3 3 0 1 0 -6 0" vector-effect="non-scaling-stroke" fill="none" stroke="#f1f5f9"/>
          <path d="M14.167 10.5c.722 -1.538 1.156 -3.043 1.303 -4.514c.22 -1.63 -.762 -2.986 -3.47 -2.986s-3.69 1.357 -3.47 2.986c.147 1.471 .581 2.976 1.303 4.514" vector-effect="non-scaling-stroke" fill="none" stroke="#f1f5f9"/>
          <path d="M13.169 16.751c.97 1.395 2.057 2.523 3.257 3.386c1.3 1 2.967 .833 4.321 -1.512c1.354 -2.345 .67 -3.874 -.85 -4.498c-1.348 -.608 -2.868 -.985 -4.562 -1.128" vector-effect="non-scaling-stroke" fill="none" stroke="#f1f5f9"/>
          <path d="M8.664 13c-1.693 .143 -3.213 .52 -4.56 1.128c-1.522 .623 -2.206 2.153 -.852 4.498s3.02 2.517 4.321 1.512c1.2 -.863 2.287 -1.991 3.258 -3.386" vector-effect="non-scaling-stroke" fill="none" stroke="#f1f5f9"/>
        </g>
      </g>
      <text id="ITEM_1_HEAD" x="0.0" y="-130.0" text-anchor="middle" font-weight="bold" font-size="32" fill="var(--accent-7)" data-bg-id="ITEM_1_BG" fill-opacity="1.0" style="font-size: 30px; font-family: Inter, Segoe UI, Kalam, Roboto, Helvetica, Arial, sans-serif; font-weight: 700; letter-spacing:-0.4px;" data-final-font-size="30">
        <tspan x="0.0" dy="41.85px">Normal Rotor</tspan>
      </text>
      <rect id="ITEM_1_HEAD_FRAME" x="-310" y="-130" width="620" height="60" fill="none"/>
      <text id="ITEM_1_BODY" x="0.0" y="-50.0" text-anchor="middle" font-size="24" fill="var(--primary-text)" opacity="0.88" data-bg-id="ITEM_1_BG" style="font-size: 26px; font-family: Inter, Segoe UI, Kalam, Roboto, Helvetica, Arial, sans-serif; font-weight: 400;" data-final-font-size="26">
        <tspan x="0.0" dy="67.26px">Steady chopping rhythm heard nearby</tspan>
      </text>
      <rect id="ITEM_1_BODY_FRAME" x="-310" y="-50" width="620" height="230" fill="none"/>
    </g>
    <g transform="translate(1440.0, 200.0)">
      <rect id="ITEM_2_ACCENT_BG" x="-400" y="-180.0" width="800" height="395.0" rx="24" fill="var(--accent-2)" fill-opacity="1.0"/>
      <rect id="ITEM_2_BG" x="-400" y="-180.0" width="800" height="395.0" rx="24" fill="var(--panel)" stroke="var(--accent-2)" filter="url(#svgf709bc95-shadow)" stroke-width="3"/>
      <rect x="-388" y="-168.0" width="776" height="371.0" rx="22" fill="url(#svgf709bc95-myth-card-sheen)" opacity="0.92"/>
      <circle id="ITEM_2_PAD" cx="330" cy="-100" r="50" fill="var(--icon-pad-bg)" stroke="var(--background)" stroke-width="2" stroke-opacity="0.65" opacity="0.94" fill-opacity="0.9"/>
      <circle id="ITEM_2_PAD_INNER" cx="330" cy="-100" r="39.00" fill="var(--accent-2)" fill-opacity="0.22"/>
      <circle cx="330" cy="-100" r="36" fill="none" stroke="var(--accent-2)" stroke-width="3" stroke-dasharray="6 4"/>
      <g id="ITEM_2_ICON" transform="translate(300, -130)" data-icon-size="60" stroke-dasharray="6 4">
        <g transform="translate(-14.571428571428571,-13.178571428571427) scale(0.3482142857142857)" vector-effect="non-scaling-stroke" stroke-width="2.43" stroke-linecap="round" stroke-linejoin="round" stroke-opacity="1.0">
          <polyline points="24 128 56 128 96 40 160 208 200 128 232 128" fill="none" stroke="#f1f5f9" vector-effect="non-scaling-stroke"/>
        </g>
      </g>
      <text id="ITEM_2_HEAD" x="0.0" y="-130.0" text-anchor="middle" font-weight="bold" font-size="32" fill="var(--primary-text)" data-bg-id="ITEM_2_BG" fill-opacity="1.0" style="font-size: 30px; font-family: Inter, Segoe UI, Kalam, Roboto, Helvetica, Arial, sans-serif; font-weight: 700; letter-spacing:-0.4px;" data-final-font-size="30">
        <tspan x="0.0" dy="41.85px">Blade Slap</tspan>
      </text>
      <rect id="ITEM_2_HEAD_FRAME" x="-310" y="-130" width="620" height="60" fill="none"/>
      <text id="ITEM_2_BODY" x="0.0" y="-50.0" text-anchor="middle" font-size="24" fill="var(--primary-text)" opacity="0.88" data-bg-id="ITEM_2_BG" style="font-size: 26px; font-family: Inter, Segoe UI, Kalam, Roboto, Helvetica, Arial, sans-serif; font-weight: 400;" data-final-font-size="26">
        <tspan x="0.0" dy="67.26px">Sharp cracks ride on top of hum</tspan>
      </text>
      <rect id="ITEM_2_BODY_FRAME" x="-310" y="-50" width="620" height="230" fill="none"/>
    </g>
    <g transform="translate(480.0, 600.0)">
      <rect id="ITEM_3_ACCENT_BG" x="-400" y="-180.0" width="800" height="395.0" rx="24" fill="var(--accent-3)" fill-opacity="0.15"/>
      <rect id="ITEM_3_BG" x="-400" y="-180.0" width="800" height="395.0" rx="24" fill="var(--panel)" stroke="var(--accent-3)" filter="url(#svgf709bc95-shadow)" stroke-width="3"/>
      <rect x="-388" y="-168.0" width="776" height="371.0" rx="22" fill="url(#svgf709bc95-myth-card-sheen)" opacity="0.92"/>
      <circle id="ITEM_3_PAD" cx="-330" cy="-100" r="50" fill="var(--icon-pad-bg)" stroke="var(--background)" stroke-width="2" stroke-opacity="0.65" opacity="0.94"/>
      <circle id="ITEM_3_PAD_INNER" cx="-330" cy="-100" r="39.00" fill="var(--accent-3)" fill-opacity="0.22"/>
      <circle cx="-330" cy="-100" r="36" fill="none" stroke="var(--accent-3)" stroke-width="3" stroke-dasharray="6 4"/>
      <g id="ITEM_3_ICON" transform="translate(-360, -130)" data-icon-size="60" stroke-dasharray="6 4">
        <g transform="translate(-11.578512396694215,-11.900826446280991) scale(0.16115702479338842)" vector-effect="non-scaling-stroke" fill="#f1f5f9" fill-opacity="1.0" stroke="none">
          <path fill="#f1f5f9" d="M149.9 27.2L34.25 56.74v76.76L157.8 93.85l46.7-44.67zm132.8 57c-7.4.18-10.1 1.88.9 7.13C346.9 121.6 441.7 206.8 391.3 216.9C232.2 249 130.4 292.3 48.51 390.8C25.42 418.6 18 494.8 18 494.8h432.6s-139-21.1-147.8-75.7c-14.9-92.2 194.5-102.7 196.5-199.9c.9-43.2-88.3-124.99-184.4-132.52c-5.6-.44-22.7-2.71-32.2-2.48m-163.5 40.9l-32.69 10.5v122.2l35.99-10z" vector-effect="non-scaling-stroke" stroke="none"/>
        </g>
      </g>
      <text id="ITEM_3_HEAD" x="0.0" y="-130.0" text-anchor="middle" font-weight="bold" font-size="32" fill="var(--accent-3)" data-bg-id="ITEM_3_BG" style="font-size: 30px; font-family: Inter, Segoe UI, Kalam, Roboto, Helvetica, Arial, sans-serif; font-weight: 700; letter-spacing:-0.4px;" data-final-font-size="30">
        <tspan x="0.0" dy="41.85px">Vortex Wake</tspan>
      </text>
      <rect id="ITEM_3_HEAD_FRAME" x="-310" y="-130" width="620" height="60" fill="none"/>
      <text id="ITEM_3_BODY" x="0.0" y="-50.0" text-anchor="middle" font-size="24" fill="var(--primary-text)" opacity="0.88" data-bg-id="ITEM_3_BG" style="font-size: 26px; font-family: Inter, Segoe UI, Kalam, Roboto, Helvetica, Arial, sans-serif; font-weight: 400;" data-final-font-size="26">
        <tspan x="0.0" dy="67.26px">Following blade hits swirling air trail</tspan>
      </text>
      <rect id="ITEM_3_BODY_FRAME" x="-310" y="-50" width="620" height="230" fill="none"/>
    </g>
    <g transform="translate(1440.0, 600.0)">
      <rect id="ITEM_4_ACCENT_BG" x="-400" y="-180.0" width="800" height="395.0" rx="24" fill="var(--accent-4)" fill-opacity="0.15"/>
      <rect id="ITEM_4_BG" x="-400" y="-180.0" width="800" height="395.0" rx="24" fill="var(--panel)" stroke="var(--accent-4)" filter="url(#svgf709bc95-shadow)" stroke-width="3"/>
      <rect x="-388" y="-168.0" width="776" height="371.0" rx="22" fill="url(#svgf709bc95-myth-card-sheen)" opacity="0.92"/>
      <circle id="ITEM_4_PAD" cx="330" cy="-100" r="50" fill="var(--icon-pad-bg)" stroke="var(--background)" stroke-width="2" stroke-opacity="0.65" opacity="0.94"/>
      <circle id="ITEM_4_PAD_INNER" cx="330" cy="-100" r="39.00" fill="var(--accent-4)" fill-opacity="0.22"/>
      <circle cx="330" cy="-100" r="36" fill="none" stroke="var(--accent-4)" stroke-width="3" stroke-dasharray="6 4"/>
      <g id="ITEM_4_ICON" transform="translate(300, -130)" data-icon-size="60" stroke-dasharray="6 4">
        <g transform="translate(-11.600000000000001,-11.6) scale(0.1625)" vector-effect="non-scaling-stroke" fill="#f1f5f9" fill-opacity="1.0" stroke="none">
          <path fill="#f1f5f9" d="M256 16S136 76 136 226v120c0 30 0 30 30 30h180c30 0 30 0 30-30V226C376 76 256 16 256 16m0 75s60 30 60 135v60H196v-60c0-105 60-135 60-135M148.63 420.998A12.63 12.63 0 0 0 136 433.63v49.737a12.63 12.63 0 0 0 12.63 12.63h214.74a12.63 12.63 0 0 0 12.63-12.63V433.63A12.63 12.63 0 0 0 363.37 421H148.63z" vector-effect="non-scaling-stroke" stroke="none"/>
        </g>
      </g>
      <text id="ITEM_4_HEAD" x="0.0" y="-130.0" text-anchor="middle" font-weight="bold" font-size="32" fill="var(--primary-text)" data-bg-id="ITEM_4_BG" style="font-size: 30px; font-family: Inter, Segoe UI, Kalam, Roboto, Helvetica, Arial, sans-serif; font-weight: 700; letter-spacing:-0.4px;" data-final-font-size="30">
        <tspan x="0.0" dy="41.85px">Distant Gunfire</tspan>
      </text>
      <rect id="ITEM_4_HEAD_FRAME" x="-310" y="-130" width="620" height="60" fill="none"/>
      <text id="ITEM_4_BODY" x="0.0" y="-50.0" text-anchor="middle" font-size="24" fill="var(--primary-text)" opacity="0.88" data-bg-id="ITEM_4_BG" style="font-size: 26px; font-family: Inter, Segoe UI, Kalam, Roboto, Helvetica, Arial, sans-serif; font-weight: 400;" data-final-font-size="26">
        <tspan x="0.0" dy="67.26px">Impulsive sound mistaken for sky shots</tspan>
      </text>
      <rect id="ITEM_4_BODY_FRAME" x="-310" y="-50" width="620" height="230" fill="none"/>
    </g>
  </g>
</svg>
