<?xml version='1.0' encoding='utf-8'?>
<svg xmlns="http://www.w3.org/2000/svg" width="1920" height="1080" viewBox="0 0 1920 1080" data-theme="dark">
  <style>
        @font-face {
            font-family: 'Inter';
            src: url('assets/fonts/Inter-Regular.ttf') format('truetype');
            font-weight: 400;
            font-style: normal;
            font-display: swap;
        }
        @font-face {
            font-family: 'Inter';
            src: url('assets/fonts/Inter-Bold.ttf') format('truetype');
            font-weight: 600;
            font-style: normal;
            font-display: swap;
        }
        @font-face {
            font-family: 'Inter';
            src: url('assets/fonts/Inter-Bold.ttf') format('truetype');
            font-weight: 800;
            font-style: normal;
            font-display: swap;
        }
        
:root {
    --background: #0f172a;
    --panel: #1e293b;
    --primary-text: #f1f5f9;
    --muted-text: #94a3b8;
    --inverse-text: #0f172a;
    --border: #334155;
    --shadow-color: #000000;
    --icon-pad-bg: #1e293b;
    --art-glow: #7dd3fc;
    --art-glow-opacity: 0.18;
    --art-sheen: #ffffff;
    --art-sheen-opacity: 0.18;
    --art-shadow: #000000;
    --art-shadow-opacity: 0.28;
    --art-muted-line: #64748b;
    --art-panel-tint: #1e293b;
    --font-family: 'Inter', 'Segoe UI', 'Kalam', Roboto, Helvetica, Arial, sans-serif;
    --radius-xl: 16px;
    --font-family-headline: 'Inter', 'Segoe UI', 'Kalam', Roboto, Helvetica, Arial, sans-serif;
    --font-family-body: 'Inter', 'Segoe UI', 'Kalam', Roboto, Helvetica, Arial, sans-serif;
    --font-heading: 'Inter', 'Segoe UI', 'Kalam', Roboto, Helvetica, Arial, sans-serif;
    --font-body: 'Inter', 'Segoe UI', 'Kalam', Roboto, Helvetica, Arial, sans-serif;
    --font-size-h1: 56px;
    --font-size-h2: 40px;
    --font-size-h3: 28px;
    --font-size-body: 24px;
    --font-size-caption: 18px;
    --secondary-text: var(--muted-text);
    --panel-border: var(--border);
    --font-weight-normal: 400;
    --font-weight-medium: 500;
    --font-weight-semibold: 600;
    --font-weight-bold: 700;
    --spacing-gutter-pct: 0.07;
    --spacing-top-pct: 0.15;
    --spacing-bottom-pct: 0.07;
    --spacing-title-y-pct: 0.055;
    --accent-1: #a5b4fc;
    --accent-2: #34d399;
    --accent-3: #f472b6;
    --accent-4: #fbbf24;
    --accent-5: #38bdf8;
    --accent-6: #c084fc;
    --accent-7: #f87171;
    --accent-8: #2dd4bf;
    --accent-9: #fb923c;
    --accent-10: #e879f9;
}
:root[data-theme="dark"] {
    --background: #0f172a;
    --panel: #1e293b;
    --primary-text: #f1f5f9;
    --muted-text: #94a3b8;
    --inverse-text: #0f172a;
    --border: #334155;
    --shadow-color: #000000;
    --icon-pad-bg: #1e293b;
    --art-glow: #7dd3fc;
    --art-glow-opacity: 0.18;
    --art-sheen: #ffffff;
    --art-sheen-opacity: 0.18;
    --art-shadow: #000000;
    --art-shadow-opacity: 0.28;
    --art-muted-line: #64748b;
    --art-panel-tint: #1e293b;
    --accent-1: #a5b4fc;
    --accent-2: #34d399;
    --accent-3: #f472b6;
    --accent-4: #fbbf24;
    --accent-5: #38bdf8;
    --accent-6: #c084fc;
    --accent-7: #f87171;
    --accent-8: #2dd4bf;
    --accent-9: #fb923c;
    --accent-10: #e879f9;
}
:root[data-theme="light"] {
    --background: #f8fafc;
    --panel: #ffffff;
    --primary-text: #0f172a;
    --muted-text: #64748b;
    --inverse-text: #ffffff;
    --border: #e2e8f0;
    --shadow-color: #000000;
    --icon-pad-bg: #1e293b;
    --art-glow: #0891b2;
    --art-glow-opacity: 0.10;
    --art-sheen: #ffffff;
    --art-sheen-opacity: 0.34;
    --art-shadow: #0f172a;
    --art-shadow-opacity: 0.14;
    --art-muted-line: #94a3b8;
    --art-panel-tint: #f1f5f9;
    --accent-1: #4f46e5;
    --accent-2: #059669;
    --accent-3: #db2777;
    --accent-4: #d97706;
    --accent-5: #0284c7;
    --accent-6: #7c3aed;
    --accent-7: #dc2626;
    --accent-8: #0d9488;
    --accent-9: #ea580c;
    --accent-10: #c026d3;
}</style>
  <rect x="0" y="0" width="1.92E+3" height="1.08E+3" fill="#252a34" stroke="none" id="programmatic_background"/>
  <line id="HEADER_DECOR" x1="960.0" x2="1080.0" y1="135.0" y2="135.0" stroke="var(--accent-1)" stroke-width="6" stroke-linecap="round"/>
  <defs>
    <pattern id="svgf61c19e2-napkin-hatch" patternUnits="userSpaceOnUse" width="12" height="12">
      <path d="M -3 12 L 12 -3 M 0 15 L 15 0" fill="none" stroke="var(--primary-text)" stroke-width="1" stroke-opacity="0.05"/>
    </pattern>
    <filter id="svgf61c19e2-shadow" x="-30%" y="-30%" width="160%" height="160%">
      <feDropShadow dx="0" dy="2" stdDeviation="3" flood-color="#000000" flood-opacity="0.08"/>
      <feDropShadow dx="0" dy="6" stdDeviation="10" flood-color="#000000" flood-opacity="0.12"/>
    </filter>
    <marker id="svgf61c19e2-arrowhead" markerWidth="10" markerHeight="10" refX="9" refY="5" orient="auto">
      <path d="M 0 0 L 10 5 L 0 10 Z" fill="var(--accent-1)"/>
    </marker>
    <filter id="svgf61c19e2-text-glow" x="-20%" y="-20%" width="140%" height="140%">
      <feDropShadow dx="0" dy="0" stdDeviation="2" flood-color="#000000" flood-opacity="0.4"/>
    </filter>
    <radialGradient id="svgf61c19e2-universal-edge-vignette" cx="50%" cy="50%" r="72%">
      <stop offset="0%" stop-color="var(--background)" stop-opacity="0"/>
      <stop offset="72%" stop-color="var(--background)" stop-opacity="0.12"/>
      <stop offset="100%" stop-color="var(--primary-text)" stop-opacity="0.08"/>
    </radialGradient>
    <linearGradient id="svgf61c19e2-universal-surface-sheen" x1="0%" y1="0%" x2="100%" y2="100%">
      <stop offset="0%" stop-color="var(--art-sheen)" stop-opacity="var(--art-sheen-opacity)"/>
      <stop offset="46%" stop-color="var(--art-sheen)" stop-opacity="0.035"/>
      <stop offset="100%" stop-color="var(--art-panel-tint)" stop-opacity="0.14"/>
    </linearGradient>
    <radialGradient id="svgf61c19e2-universal-icon-aura" cx="50%" cy="42%" r="64%">
      <stop offset="0%" stop-color="var(--art-glow)" stop-opacity="var(--art-glow-opacity)"/>
      <stop offset="100%" stop-color="var(--background)" stop-opacity="0"/>
    </radialGradient>
  </defs>
  <rect width="100%" height="100%" fill="var(--background)" id="CANVAS_BG"/>
  <rect width="100%" height="100%" fill="url(#svgf61c19e2-napkin-hatch)"/>
  <rect id="UNIVERSAL_EDGE_VIGNETTE" width="100%" height="100%" fill="url(#svgf61c19e2-universal-edge-vignette)" opacity="0.62"/>
  <text id="TITLE" x="960.0" y="59" text-anchor="middle" font-weight="800" font-size="56" fill="#f1f5f9" style="font-size: 60px; font-family: Inter, Segoe UI, Kalam, Roboto, Helvetica, Arial, sans-serif; font-weight: 700; letter-spacing:-1.2px;" data-final-font-size="60">
    <tspan x="960.0" dy="68.00px">Feedback Loop Cycle</tspan>
  </text>
  <rect id="TITLE_FRAME" x="134" y="59" width="1652" height="103" fill="none"/>
  <g transform="translate(960, 540) scale(0.95)">
    <path d="M 0 0 C -300 -270 -750 -270 -750 0 C -750 270 -300 270 0 0 C 300 -270 750 -270 750 0 C 750 270 300 270 0 0" fill="none" stroke="var(--panel)" stroke-width="36" opacity="0.6"/>
    <path d="M 0 0 C -300 -270 -750 -270 -750 0 C -750 270 -300 270 0 0 C 300 -270 750 -270 750 0 C 750 270 300 270 0 0" fill="none" stroke="var(--accent-1)" stroke-width="6" stroke-dasharray="18 18" stroke-linecap="round"/>
    <g transform="translate(-600, 0)">
      <rect id="ITEM_1_BG" x="-160" y="-100" width="320" height="200" rx="24" fill="var(--panel)" stroke="var(--accent-1)" stroke-width="3"/>
      <rect id="ITEM_1_TEXT_PILL" x="-100" y="-50" width="200" height="50" rx="12" fill="var(--background)" opacity="0.9"/>
      <text id="ITEM_1_HEAD" x="0.0" y="-45.0" text-anchor="middle" font-weight="bold" font-size="28" fill="var(--accent-7)" data-bg-id="ITEM_1_TEXT_PILL" fill-opacity="1.0" stroke="none" style="font-size: 26px; font-family: Inter, Segoe UI, Kalam, Roboto, Helvetica, Arial, sans-serif; font-weight: 700; letter-spacing:-0.4px;" data-final-font-size="26">
        <tspan x="0.0" dy="26.50px">Unusual Sounds</tspan>
      </text>
      <rect id="ITEM_1_HEAD_FRAME" x="-90" y="-45" width="180" height="35" fill="none"/>
      <text id="ITEM_1_BODY" x="0.0" y="10.0" text-anchor="middle" font-size="20" fill="var(--primary-text)" data-bg-id="ITEM_1_BG" style="font-size: 26px; font-family: Inter, Segoe UI, Kalam, Roboto, Helvetica, Arial, sans-serif; font-weight: 400;" data-final-font-size="26">
        <tspan x="0.0" dy="37.16px">Witnesses report drones,</tspan>
        <tspan x="0.0" dy="29.90px">whistles, and vibrations</tspan>
      </text>
      <rect id="ITEM_1_BODY_FRAME" x="-162" y="10" width="324" height="120" fill="none" data-side-overflow-fix="28.0|28.0"/>
      <circle id="ITEM_1_PAD" cx="-110" cy="-80" r="40" fill="var(--icon-pad-bg)" stroke="var(--primary-text)" opacity="0.9" fill-opacity="0.9" stroke-width="2"/>
      <circle id="ITEM_1_PAD_INNER" cx="-110" cy="-80" r="31.20" fill="var(--accent-7)" fill-opacity="0.22"/>
      <circle cx="-110" cy="-80" r="32.0" fill="none" stroke="var(--accent-1)" stroke-width="3" stroke-dasharray="6 4"/>
      <g id="ITEM_1_ICON" transform="translate(-140.0, -110.0)" data-icon-size="60" stroke-dasharray="6 4">
        <g transform="translate(-3.844067796610176,-3.844067796610173) scale(2.820338983050848)" vector-effect="non-scaling-stroke" stroke-width="2.43" stroke-linecap="round" stroke-linejoin="round" stroke-opacity="1.0">
          <path d="M10.5 22H18a2 2 0 0 0 2-2V7l-5-5H6a2 2 0 0 0-2 2v8.4" vector-effect="non-scaling-stroke" fill="none" stroke="#f1f5f9"/>
          <path d="M8 18v-7.7L16 9v7" vector-effect="non-scaling-stroke" fill="none" stroke="#f1f5f9"/>
          <circle cx="14" cy="16" r="2" vector-effect="non-scaling-stroke" fill="none" stroke="#f1f5f9"/>
          <circle cx="6" cy="18" r="2" vector-effect="non-scaling-stroke" fill="none" stroke="#f1f5f9"/>
        </g>
      </g>
    </g>
    <g transform="translate(-300, -180)">
      <rect id="ITEM_2_BG" x="-160" y="-100" width="320" height="200" rx="24" fill="var(--panel)" stroke="var(--accent-2)" stroke-width="3"/>
      <rect id="ITEM_2_TEXT_PILL" x="-100" y="-50" width="200" height="50" rx="12" fill="var(--background)" opacity="0.9"/>
      <text id="ITEM_2_HEAD" x="0.0" y="-45.0" text-anchor="middle" font-weight="bold" font-size="28" fill="var(--accent-8)" data-bg-id="ITEM_2_TEXT_PILL" fill-opacity="1.0" stroke="none" style="font-size: 26px; font-family: Inter, Segoe UI, Kalam, Roboto, Helvetica, Arial, sans-serif; font-weight: 700; letter-spacing:-0.4px;" data-final-font-size="26">
        <tspan x="0.0" dy="26.50px">Media Adoption</tspan>
      </text>
      <rect id="ITEM_2_HEAD_FRAME" x="-90" y="-45" width="180" height="35" fill="none"/>
      <text id="ITEM_2_BODY" x="0.0" y="10.0" text-anchor="middle" font-size="20" fill="var(--primary-text)" data-bg-id="ITEM_2_BG" style="font-size: 26px; font-family: Inter, Segoe UI, Kalam, Roboto, Helvetica, Arial, sans-serif; font-weight: 400;" data-final-font-size="26">
        <tspan x="0.0" dy="37.16px">Films and TV dramatise</tspan>
        <tspan x="0.0" dy="29.90px">these reported audio cues</tspan>
      </text>
      <rect id="ITEM_2_BODY_FRAME" x="-162" y="10" width="324" height="120" fill="none" data-side-overflow-fix="28.0|28.0"/>
      <circle id="ITEM_2_PAD" cx="-110" cy="-80" r="40" fill="var(--icon-pad-bg)" stroke="var(--primary-text)" opacity="0.9" fill-opacity="0.9" stroke-width="2"/>
      <circle id="ITEM_2_PAD_INNER" cx="-110" cy="-80" r="31.20" fill="var(--accent-8)" fill-opacity="0.22"/>
      <circle cx="-110" cy="-80" r="32.0" fill="none" stroke="var(--accent-2)" stroke-width="3" stroke-dasharray="6 4"/>
      <g id="ITEM_2_ICON" transform="translate(-140.0, -110.0)" data-icon-size="60" stroke-dasharray="6 4">
        <g transform="translate(-5.34159292035399,-5.617699115044255) scale(2.2088495575221243)">
          <path d="M10.3535 3.06063C10.1582 2.86537 10.1582 2.54879 10.3535 2.35352C10.5487 2.15826 10.8653 2.15826 11.0606 2.35352L14.9497 6.24261L14.2426 6.94972L10.3535 3.06063Z" fill="#636363"/>
          <path d="M18.889 2.35348C19.0842 2.15822 19.4008 2.15822 19.5961 2.35348C19.7914 2.54874 19.7914 2.86532 19.5961 3.06058L15.707 6.94967L14.9999 6.24257L18.889 2.35348Z" fill="#636363"/>
          <path d="M11.0002 23.5L8.00024 23L6.46544 28.7279C6.31248 29.2987 6.65125 29.8855 7.22209 30.0385C7.73725 30.1765 8.2754 29.9141 8.48393 29.4232L11.0002 23.5Z" fill="#636363"/>
          <path d="M21.0002 23.5L24.0002 23L25.535 28.7279C25.688 29.2987 25.3492 29.8855 24.7784 30.0385C24.2632 30.1765 23.7251 29.9141 23.5165 29.4232L21.0002 23.5Z" fill="#636363"/>
          <path d="M3 9C3 7.34315 4.34315 6 6 6H26C27.6569 6 29 7.34315 29 9V22C29 23.6569 27.6569 25 26 25H6C4.34315 25 3 23.6569 3 22V9Z" fill="#9B9B9B"/>
          <circle cx="25.75" cy="13.25" r="1.25" fill="#CA0B4A"/>
          <circle cx="25.75" cy="9.25" r="1.25" fill="#636363"/>
          <path d="M6.5 11.5C6.5 10.3954 7.39543 9.5 8.5 9.5H20.5C21.6046 9.5 22.5 10.3954 22.5 11.5V19.5C22.5 20.6046 21.6046 21.5 20.5 21.5H8.5C7.39543 21.5 6.5 20.6046 6.5 19.5V11.5Z" fill="#83CBFF"/>
          <path d="M21 10C21.5523 10 22 10.4477 22 11V20C22 20.5523 21.5523 21 21 21H8C7.44772 21 7 20.5523 7 20V11C7 10.4477 7.44772 10 8 10H21ZM8 9C6.89543 9 6 9.89543 6 11V20C6 21.1046 6.89543 22 8 22H21C22.1046 22 23 21.1046 23 20V11C23 9.89543 22.1046 9 21 9H8Z" fill="#321B41"/>
        </g>
      </g>
    </g>
    <g transform="translate(0, 0)">
      <rect id="ITEM_3_BG" x="-160" y="-100" width="320" height="200" rx="24" fill="var(--panel)" stroke="var(--accent-3)" stroke-width="3"/>
      <rect id="ITEM_3_TEXT_PILL" x="-100" y="-50" width="200" height="50" rx="12" fill="var(--background)" opacity="0.9"/>
      <text id="ITEM_3_HEAD" x="0.0" y="-45.0" text-anchor="middle" font-weight="bold" font-size="28" fill="var(--accent-9)" data-bg-id="ITEM_3_TEXT_PILL" fill-opacity="1.0" stroke="none" style="font-size: 16px; font-family: Inter, Segoe UI, Kalam, Roboto, Helvetica, Arial, sans-serif; font-weight: 700; letter-spacing:-0.4px;" data-final-font-size="16">
        <tspan x="0.0" dy="13.45px">Audience</tspan>
        <tspan x="0.0" dy="20.00px">Internalization</tspan>
      </text>
      <rect id="ITEM_3_HEAD_FRAME" x="-90" y="-45" width="180" height="35" fill="none"/>
      <text id="ITEM_3_BODY" x="0.0" y="10.0" text-anchor="middle" font-size="20" fill="var(--primary-text)" data-bg-id="ITEM_3_BG" style="font-size: 26px; font-family: Inter, Segoe UI, Kalam, Roboto, Helvetica, Arial, sans-serif; font-weight: 400;" data-final-font-size="26">
        <tspan x="0.0" dy="31.18px">Viewers learn to expect</tspan>
        <tspan x="0.0" dy="29.90px">these sounds in</tspan>
        <tspan x="0.0" dy="29.90px">encounters</tspan>
      </text>
      <rect id="ITEM_3_BODY_FRAME" x="-162" y="10" width="324" height="120" fill="none" data-side-overflow-fix="28.0|28.0"/>
      <circle id="ITEM_3_PAD" cx="-110" cy="-80" r="40" fill="var(--icon-pad-bg)" stroke="var(--primary-text)" opacity="0.9" fill-opacity="0.9" stroke-width="2"/>
      <circle id="ITEM_3_PAD_INNER" cx="-110" cy="-80" r="31.20" fill="var(--accent-9)" fill-opacity="0.22"/>
      <circle cx="-110" cy="-80" r="32.0" fill="none" stroke="var(--accent-3)" stroke-width="3" stroke-dasharray="6 4"/>
      <g id="ITEM_3_ICON" transform="translate(-140.0, -110.0)" data-icon-size="60" stroke-dasharray="6 4">
        <g transform="translate(-11.6,-11.600000000000003) scale(3.466666666666667)" vector-effect="non-scaling-stroke" fill="#f1f5f9" fill-opacity="1.0" stroke="none">
          <path fill="#f1f5f9" d="M13 3C9.2 3 6.2 5.9 6 9.7l-1.9 2.5c-.2.3 0 .8.4.8H6v3c0 1.1.9 2 2 2h1v3h7v-4.7c2.4-1.1 4-3.5 4-6.3c0-3.9-3.1-7-7-7" vector-effect="non-scaling-stroke" stroke="none"/>
        </g>
      </g>
    </g>
    <g transform="translate(300, 180)">
      <rect id="ITEM_4_BG" x="-160" y="-100" width="320" height="200" rx="24" fill="var(--panel)" stroke="var(--accent-4)" stroke-width="3"/>
      <rect id="ITEM_4_TEXT_PILL" x="-100" y="-50" width="200" height="50" rx="12" fill="var(--background)" opacity="0.9"/>
      <text id="ITEM_4_HEAD" x="0.0" y="-45.0" text-anchor="middle" font-weight="bold" font-size="28" fill="var(--accent-10)" data-bg-id="ITEM_4_TEXT_PILL" fill-opacity="1.0" stroke="none" style="font-size: 19px; font-family: Inter, Segoe UI, Kalam, Roboto, Helvetica, Arial, sans-serif; font-weight: 700; letter-spacing:-0.4px;" data-final-font-size="19">
        <tspan x="0.0" dy="23.98px">Future Descriptions</tspan>
      </text>
      <rect id="ITEM_4_HEAD_FRAME" x="-90" y="-45" width="180" height="35" fill="none"/>
      <text id="ITEM_4_BODY" x="0.0" y="10.0" text-anchor="middle" font-size="20" fill="var(--primary-text)" data-bg-id="ITEM_4_BG" style="font-size: 26px; font-family: Inter, Segoe UI, Kalam, Roboto, Helvetica, Arial, sans-serif; font-weight: 400;" data-final-font-size="26">
        <tspan x="0.0" dy="37.16px">New reports use the same</tspan>
        <tspan x="0.0" dy="29.90px">established vocabulary</tspan>
      </text>
      <rect id="ITEM_4_BODY_FRAME" x="-162" y="10" width="324" height="120" fill="none" data-side-overflow-fix="28.0|28.0"/>
      <circle id="ITEM_4_PAD" cx="-110" cy="-80" r="40" fill="var(--icon-pad-bg)" stroke="var(--primary-text)" opacity="0.9" fill-opacity="0.9" stroke-width="2"/>
      <circle id="ITEM_4_PAD_INNER" cx="-110" cy="-80" r="31.20" fill="var(--accent-10)" fill-opacity="0.22"/>
      <circle cx="-110" cy="-80" r="32.0" fill="none" stroke="var(--accent-4)" stroke-width="3" stroke-dasharray="6 4"/>
      <g id="ITEM_4_ICON" transform="translate(-140.0, -110.0)" data-icon-size="60" stroke-dasharray="6 4">
        <g transform="translate(-6.977777777777781,-6.977777777777781) scale(3.081481481481482)" vector-effect="non-scaling-stroke" stroke-width="2.43" stroke-linecap="round" stroke-linejoin="round" stroke-opacity="1.0">
          <rect width="8" height="8" x="3" y="3" rx="2" vector-effect="non-scaling-stroke" fill="none" stroke="#f1f5f9"/>
          <path d="M7 11v4a2 2 0 0 0 2 2h4" vector-effect="non-scaling-stroke" fill="none" stroke="#f1f5f9"/>
          <rect width="8" height="8" x="13" y="13" rx="2" vector-effect="non-scaling-stroke" fill="none" stroke="#f1f5f9"/>
        </g>
      </g>
    </g>
    <g transform="translate(600, 0)">
      <rect id="ITEM_5_BG" x="-160" y="-100" width="320" height="200" rx="24" fill="var(--panel)" stroke="var(--accent-5)" stroke-width="3"/>
      <rect id="ITEM_5_TEXT_PILL" x="-100" y="-50" width="200" height="50" rx="12" fill="var(--background)" opacity="0.9"/>
      <text id="ITEM_5_HEAD" x="0.0" y="-45.0" text-anchor="middle" font-weight="bold" font-size="28" fill="var(--accent-1)" data-bg-id="ITEM_5_TEXT_PILL" fill-opacity="1.0" stroke="none" style="font-size: 21px; font-family: Inter, Segoe UI, Kalam, Roboto, Helvetica, Arial, sans-serif; font-weight: 700; letter-spacing:-0.4px;" data-final-font-size="21">
        <tspan x="0.0" dy="25.38px">Stronger Folklore</tspan>
      </text>
      <rect id="ITEM_5_HEAD_FRAME" x="-90" y="-45" width="180" height="35" fill="none"/>
      <text id="ITEM_5_BODY" x="0.0" y="10.0" text-anchor="middle" font-size="20" fill="var(--primary-text)" data-bg-id="ITEM_5_BG" style="font-size: 26px; font-family: Inter, Segoe UI, Kalam, Roboto, Helvetica, Arial, sans-serif; font-weight: 400;" data-final-font-size="26">
        <tspan x="0.0" dy="31.18px">The cycle reinforces</tspan>
        <tspan x="0.0" dy="29.90px">recognizable audio</tspan>
        <tspan x="0.0" dy="29.90px">conventions</tspan>
      </text>
      <rect id="ITEM_5_BODY_FRAME" x="-162" y="10" width="324" height="120" fill="none" data-side-overflow-fix="28.0|28.0"/>
      <circle id="ITEM_5_PAD" cx="-110" cy="-80" r="40" fill="var(--icon-pad-bg)" stroke="var(--primary-text)" opacity="0.9" fill-opacity="0.9" stroke-width="2"/>
      <circle id="ITEM_5_PAD_INNER" cx="-110" cy="-80" r="31.20" fill="var(--accent-1)" fill-opacity="0.22"/>
      <circle cx="-110" cy="-80" r="32.0" fill="none" stroke="var(--accent-5)" stroke-width="3" stroke-dasharray="6 4"/>
      <g id="ITEM_5_ICON" transform="translate(-140.0, -110.0)" data-icon-size="60" stroke-dasharray="6 4">
        <g transform="translate(-6.977777777777781,-6.977777777777781) scale(3.081481481481482)" vector-effect="non-scaling-stroke" stroke-width="2.43" stroke-linecap="round" stroke-linejoin="round" stroke-opacity="1.0">
          <rect width="8" height="8" x="3" y="3" rx="2" vector-effect="non-scaling-stroke" fill="none" stroke="#f1f5f9"/>
          <path d="M7 11v4a2 2 0 0 0 2 2h4" vector-effect="non-scaling-stroke" fill="none" stroke="#f1f5f9"/>
          <rect width="8" height="8" x="13" y="13" rx="2" vector-effect="non-scaling-stroke" fill="none" stroke="#f1f5f9"/>
        </g>
      </g>
    </g>
  </g>
</svg>
