<?xml version='1.0' encoding='utf-8'?>
<svg xmlns="http://www.w3.org/2000/svg" width="100%" height="100%" viewBox="0 0 1920 1080" data-theme="light">
  <style>
        @font-face {
            font-family: 'Inter';
            src: url('assets/fonts/Inter-Regular.ttf') format('truetype');
            font-weight: 400;
            font-style: normal;
            font-display: swap;
        }
        @font-face {
            font-family: 'Inter';
            src: url('assets/fonts/Inter-Bold.ttf') format('truetype');
            font-weight: 600;
            font-style: normal;
            font-display: swap;
        }
        @font-face {
            font-family: 'Inter';
            src: url('assets/fonts/Inter-Bold.ttf') format('truetype');
            font-weight: 800;
            font-style: normal;
            font-display: swap;
        }
        
:root {
    --background: #f8fafc;
    --panel: #ffffff;
    --primary-text: #0f172a;
    --muted-text: #64748b;
    --inverse-text: #ffffff;
    --border: #e2e8f0;
    --shadow-color: #000000;
    --icon-pad-bg: #1e293b;
    --art-glow: #0891b2;
    --art-glow-opacity: 0.10;
    --art-sheen: #ffffff;
    --art-sheen-opacity: 0.34;
    --art-shadow: #0f172a;
    --art-shadow-opacity: 0.14;
    --art-muted-line: #94a3b8;
    --art-panel-tint: #f1f5f9;
    --font-family: 'Inter', 'Segoe UI', 'Kalam', Roboto, Helvetica, Arial, sans-serif;
    --radius-xl: 16px;
    --font-family-headline: 'Inter', 'Segoe UI', 'Kalam', Roboto, Helvetica, Arial, sans-serif;
    --font-family-body: 'Inter', 'Segoe UI', 'Kalam', Roboto, Helvetica, Arial, sans-serif;
    --font-heading: 'Inter', 'Segoe UI', 'Kalam', Roboto, Helvetica, Arial, sans-serif;
    --font-body: 'Inter', 'Segoe UI', 'Kalam', Roboto, Helvetica, Arial, sans-serif;
    --font-size-h1: 56px;
    --font-size-h2: 40px;
    --font-size-h3: 28px;
    --font-size-body: 24px;
    --font-size-caption: 18px;
    --secondary-text: var(--muted-text);
    --panel-border: var(--border);
    --font-weight-normal: 400;
    --font-weight-medium: 500;
    --font-weight-semibold: 600;
    --font-weight-bold: 700;
    --spacing-gutter-pct: 0.07;
    --spacing-top-pct: 0.15;
    --spacing-bottom-pct: 0.07;
    --spacing-title-y-pct: 0.055;
    --accent-1: #0891b2;
    --accent-2: #db2777;
    --accent-3: #ca8a04;
    --accent-4: #65a30d;
    --accent-5: #ea580c;
    --accent-6: #9333ea;
}
:root[data-theme="dark"] {
    --background: #0f172a;
    --panel: #1e293b;
    --primary-text: #f1f5f9;
    --muted-text: #94a3b8;
    --inverse-text: #0f172a;
    --border: #334155;
    --shadow-color: #000000;
    --icon-pad-bg: #1e293b;
    --art-glow: #7dd3fc;
    --art-glow-opacity: 0.18;
    --art-sheen: #ffffff;
    --art-sheen-opacity: 0.18;
    --art-shadow: #000000;
    --art-shadow-opacity: 0.28;
    --art-muted-line: #64748b;
    --art-panel-tint: #1e293b;
    --accent-1: #22d3ee;
    --accent-2: #f472b6;
    --accent-3: #facc15;
    --accent-4: #a3e635;
    --accent-5: #fb923c;
    --accent-6: #c084fc;
}
:root[data-theme="light"] {
    --background: #f8fafc;
    --panel: #ffffff;
    --primary-text: #0f172a;
    --muted-text: #64748b;
    --inverse-text: #ffffff;
    --border: #e2e8f0;
    --shadow-color: #000000;
    --icon-pad-bg: #1e293b;
    --art-glow: #0891b2;
    --art-glow-opacity: 0.10;
    --art-sheen: #ffffff;
    --art-sheen-opacity: 0.34;
    --art-shadow: #0f172a;
    --art-shadow-opacity: 0.14;
    --art-muted-line: #94a3b8;
    --art-panel-tint: #f1f5f9;
    --accent-1: #0891b2;
    --accent-2: #db2777;
    --accent-3: #ca8a04;
    --accent-4: #65a30d;
    --accent-5: #ea580c;
    --accent-6: #9333ea;
}</style>
  <rect x="0" y="0" width="1.92E+3" height="1.08E+3" fill="#252a34" stroke="none" id="programmatic_background"/>
  <line id="HEADER_DECOR" x1="960.0" x2="1080.0" y1="90.0" y2="90.0" stroke="var(--accent-1)" stroke-width="6" stroke-linecap="round"/>
  <defs>
    <filter id="svg8ee03940-glow" x="-20%" y="-20%" width="140%" height="140%">
      <feGaussianBlur stdDeviation="8" result="blur"/>
      <feComposite in="SourceGraphic" in2="blur" operator="over"/>
    </filter>
    <filter id="svg8ee03940-drop-shadow" x="-5%" y="-5%" width="110%" height="110%">
      <feDropShadow dx="0" dy="6" stdDeviation="6" flood-color="#000000" flood-opacity="0.3"/>
    </filter>
    <linearGradient id="svg8ee03940-bg-grad" x1="0%" y1="0%" x2="100%" y2="100%">
      <stop offset="0%" stop-color="var(--background)"/>
      <stop offset="100%" stop-color="var(--panel)"/>
    </linearGradient>
    <radialGradient id="svg8ee03940-core-glow" cx="50%" cy="50%" r="50%">
      <stop offset="0%" stop-color="var(--accent-1)" stop-opacity="0.2"/>
      <stop offset="60%" stop-color="var(--accent-1)" stop-opacity="0.1"/>
      <stop offset="100%" stop-color="var(--accent-1)" stop-opacity="0"/>
    </radialGradient>
    <pattern id="svg8ee03940-dot-grid" x="0" y="0" width="40" height="40" patternUnits="userSpaceOnUse">
      <circle cx="2" cy="2" r="1.5" fill="var(--muted-text)" opacity="0.1"/>
    </pattern>
    <radialGradient id="svg8ee03940-universal-edge-vignette" cx="50%" cy="50%" r="72%">
      <stop offset="0%" stop-color="var(--background)" stop-opacity="0"/>
      <stop offset="72%" stop-color="var(--background)" stop-opacity="0.12"/>
      <stop offset="100%" stop-color="var(--primary-text)" stop-opacity="0.08"/>
    </radialGradient>
    <linearGradient id="svg8ee03940-universal-surface-sheen" x1="0%" y1="0%" x2="100%" y2="100%">
      <stop offset="0%" stop-color="var(--art-sheen)" stop-opacity="var(--art-sheen-opacity)"/>
      <stop offset="46%" stop-color="var(--art-sheen)" stop-opacity="0.035"/>
      <stop offset="100%" stop-color="var(--art-panel-tint)" stop-opacity="0.14"/>
    </linearGradient>
    <radialGradient id="svg8ee03940-universal-icon-aura" cx="50%" cy="42%" r="64%">
      <stop offset="0%" stop-color="var(--art-glow)" stop-opacity="var(--art-glow-opacity)"/>
      <stop offset="100%" stop-color="var(--background)" stop-opacity="0"/>
    </radialGradient>
    <radialGradient id="svg8ee03940-orbital-rings-art-glow" cx="50%" cy="52%" r="68%">
      <stop offset="0%" stop-color="var(--inverse-text)" stop-opacity="0.14"/>
      <stop offset="100%" stop-color="var(--background)" stop-opacity="0"/>
    </radialGradient>
    <linearGradient id="svg8ee03940-orbital-rings-art-sheen" x1="16%" y1="0%" x2="86%" y2="100%">
      <stop offset="0%" stop-color="var(--inverse-text)" stop-opacity="0.22"/>
      <stop offset="52%" stop-color="var(--inverse-text)" stop-opacity="0.035"/>
      <stop offset="100%" stop-color="var(--background)" stop-opacity="0.14"/>
    </linearGradient>
    <radialGradient id="svg8ee03940-orbital-depth-glow" cx="50%" cy="50%" r="58%">
      <stop offset="0%" stop-color="var(--art-glow)" stop-opacity="var(--art-glow-opacity)"/>
      <stop offset="58%" stop-color="var(--art-glow)" stop-opacity="0.055"/>
      <stop offset="100%" stop-color="var(--background)" stop-opacity="0"/>
    </radialGradient>
    <linearGradient id="svg8ee03940-orbital-ring-sweep" x1="0%" y1="0%" x2="100%" y2="100%">
      <stop offset="0%" stop-color="var(--background)" stop-opacity="0"/>
      <stop offset="46%" stop-color="var(--art-sheen)" stop-opacity="0.22"/>
      <stop offset="100%" stop-color="var(--background)" stop-opacity="0"/>
    </linearGradient>
    <filter id="svg8ee03940-text-glow" x="-20%" y="-20%" width="140%" height="140%">
      <feDropShadow dx="0" dy="0" stdDeviation="2" flood-color="#000000" flood-opacity="0.4"/>
    </filter>
    <filter id="svg8ee03940-shadow" x="-30%" y="-30%" width="160%" height="160%">
      <feDropShadow dx="0" dy="2" stdDeviation="3" flood-color="#000000" flood-opacity="0.08"/>
      <feDropShadow dx="0" dy="6" stdDeviation="10" flood-color="#000000" flood-opacity="0.12"/>
    </filter>
    <marker id="svg8ee03940-arrowhead" markerWidth="10" markerHeight="7" refX="9" refY="3.5" orient="auto" markerUnits="strokeWidth">
      <polygon points="0 0, 10 3.5, 0 7" fill="var(--muted-text)" opacity="0.6"/>
    </marker>
  </defs>
  <rect width="100%" height="100%" fill="var(--background)" id="CANVAS_BG"/>
  <ellipse id="ORBITAL-RINGS_ART_GLOW" cx="960" cy="600" rx="650" ry="340" fill="url(#svg8ee03940-orbital-rings-art-glow)" opacity="0.84"/>
  <rect id="UNIVERSAL_EDGE_VIGNETTE" width="100%" height="100%" fill="url(#svg8ee03940-universal-edge-vignette)" opacity="0.62"/>
  <rect width="1920" height="1080" fill="url(#svg8ee03940-bg-grad)"/>
  <rect width="1920" height="1080" fill="url(#svg8ee03940-dot-grid)"/>
  <rect id="TITLE_FRAME" x="134" y="25" width="1652" height="70" fill="none" pointer-events="none"/>
  <text id="TITLE" x="960.0" y="59" font-size="48" font-weight="700" fill="#0f172a" text-anchor="middle" style="font-size: 60px; font-family: Inter, Segoe UI, Kalam, Roboto, Helvetica, Arial, sans-serif; font-weight: 700; letter-spacing:-1.2px;" data-final-font-size="60">
    <tspan x="960.0" dy="68.00px">Investigation Clues</tspan>
  </text>
  <g id="DIAGRAM_MAIN">
    <!-- Center Core Glow -->
    <circle cx="960.0" cy="540.0" r="280" fill="url(#svg8ee03940-core-glow)" pointer-events="none"/>
    <circle cx="960.0" cy="540.0" r="240.0" fill="none" stroke="var(--muted-text)" stroke-width="2" stroke-dasharray="8 8" opacity="0.4"/>
    <circle id="ORBITAL_RINGS_ART_RING_SHEEN_240.0" cx="960.0" cy="540.0" r="240.0" fill="none" stroke="url(#svg8ee03940-orbital-ring-sweep)" stroke-width="3" stroke-dasharray="28 30" opacity="0.46"/>
    <circle cx="960.0" cy="540.0" r="313.3333333333333" fill="none" stroke="var(--muted-text)" stroke-width="2" stroke-dasharray="8 8" opacity="0.4"/>
    <circle id="ORBITAL_RINGS_ART_RING_SHEEN_313.3333333333333" cx="960.0" cy="540.0" r="313.3333333333333" fill="none" stroke="url(#svg8ee03940-orbital-ring-sweep)" stroke-width="3" stroke-dasharray="28 30" opacity="0.46"/>
    <circle cx="960.0" cy="540.0" r="386.66666666666663" fill="none" stroke="var(--muted-text)" stroke-width="2" stroke-dasharray="8 8" opacity="0.4"/>
    <circle id="ORBITAL_RINGS_ART_RING_SHEEN_386.66666666666663" cx="960.0" cy="540.0" r="386.66666666666663" fill="none" stroke="url(#svg8ee03940-orbital-ring-sweep)" stroke-width="3" stroke-dasharray="28 30" opacity="0.46"/>
    <circle cx="960.0" cy="540.0" r="460.0" fill="none" stroke="var(--muted-text)" stroke-width="2" stroke-dasharray="8 8" opacity="0.4"/>
    <circle id="ORBITAL_RINGS_ART_RING_SHEEN_460.0" cx="960.0" cy="540.0" r="460.0" fill="none" stroke="url(#svg8ee03940-orbital-ring-sweep)" stroke-width="3" stroke-dasharray="28 30" opacity="0.46"/>
    <ellipse id="ORBITAL_RINGS_ART_DEPTH_GLOW" cx="960.0" cy="540.0" rx="410" ry="340" fill="url(#svg8ee03940-orbital-depth-glow)" opacity="0.92"/>
    <!-- Central Core Graphic -->
    <circle cx="960.0" cy="540.0" r="180" fill="var(--panel)" stroke="var(--primary-text)" stroke-width="4" filter="url(#svg8ee03940-drop-shadow)"/>
    <circle cx="960.0" cy="540.0" r="165" fill="none" stroke="var(--muted-text)" stroke-width="2" stroke-dasharray="10 5" opacity="0.3"/>
    <circle cx="960.0" cy="540.0" r="140" fill="none" stroke="var(--accent-1)" stroke-width="1" stroke-dasharray="4 4" opacity="0.5"/>
    <circle id="ORBITAL_RINGS_ART_CORE_AURA" cx="960.0" cy="540.0" r="74" fill="url(#svg8ee03940-universal-icon-aura)" opacity="0.72"/>
    <circle cx="960.0" cy="540.0" r="30" fill="var(--primary-text)" opacity="0.1"/>
    <circle id="ORBITAL_RINGS_ART_CORE_GLINT" cx="938" cy="518" r="11" fill="var(--art-sheen)" opacity="0.34"/>
    <!-- Standard Top Global Title -->
    <circle id="ORBITAL_RINGS_ART_NODE_AURA_1" cx="1200.0" cy="540.0" r="58" fill="var(--accent-5)" opacity="0.72" fill-opacity="1.0" stroke="var(--accent-5)" stroke-opacity="1.0"/>
    <circle id="ITEM_1_BORDER" cx="1200.0" cy="540.0" r="42" fill="var(--icon-pad-bg)" stroke="var(--accent-5)" filter="url(#svg8ee03940-drop-shadow)" stroke-opacity="1.0"/>
    <circle id="ITEM_1_STROKE" cx="1200.0" cy="540.0" r="34" fill="none" stroke="var(--accent-1)" stroke-width="3" stroke-dasharray="6 4" opacity="0.95"/>
    <!-- Node Icon Placeholder -->
    <circle id="ITEM_1_PAD" cx="1204.00" cy="544.00" r="44.80" fill="var(--icon-pad-bg)" stroke="var(--primary-text)" stroke-width="2" opacity="0.9"/>
    <circle id="ITEM_1_PAD_INNER" cx="1204.00" cy="544.00" r="34.94" fill="var(--accent-5)" fill-opacity="0.22"/>
    <g id="ITEM_1_ICON" transform="translate(1176.0, 516.0)" data-icon-size="56" stroke-dasharray="6 4">
      <g transform="translate(-13.415111111111106,-13.41511111111111) scale(3.451259259259259)" vector-effect="non-scaling-stroke" stroke-width="2.38" stroke-linecap="round" stroke-linejoin="round" stroke-opacity="1.0">
        <path d="M14.106 5.553a2 2 0 0 0 1.788 0l3.659-1.83A1 1 0 0 1 21 4.619v12.764a1 1 0 0 1-.553.894l-4.553 2.277a2 2 0 0 1-1.788 0l-4.212-2.106a2 2 0 0 0-1.788 0l-3.659 1.83A1 1 0 0 1 3 19.381V6.618a1 1 0 0 1 .553-.894l4.553-2.277a2 2 0 0 1 1.788 0z" vector-effect="non-scaling-stroke" fill="none" stroke="#f1f5f9"/>
        <path d="M15 5.764v15" vector-effect="non-scaling-stroke" fill="none" stroke="#f1f5f9"/>
        <path d="M9 3.236v15" vector-effect="non-scaling-stroke" fill="none" stroke="#f1f5f9"/>
      </g>
    </g>
    <line x1="1248.0" y1="540.0" x2="1260.0" y2="540.0" stroke="var(--accent-1)" stroke-width="2" stroke-dasharray="2 2" opacity="0.5"/>
    <circle cx="1260.0" cy="540.0" r="3" fill="var(--accent-1)"/>
    <!-- Node 1 Frames -->
    <rect id="ITEM_1_HEAD_FRAME" x="1270.0" y="500.0" width="260" height="40" fill="none" pointer-events="none"/>
    <rect id="ITEM_1_BODY_FRAME" x="1270" y="540.0" width="380" height="120" fill="none" pointer-events="none"/>
    <rect id="ITEM_1_TEXT_BG" x="1252" y="486" width="416" height="192" rx="22" fill="var(--panel)" fill-opacity="0.94" stroke="var(--primary-text)" stroke-width="2"/>
    <text id="ITEM_1_HEAD" x="1270.0" y="500.0" font-family="var(--font-heading)" font-weight="bold" font-size="28" fill="var(--primary-text)" text-anchor="start" data-bg-id="ITEM_1_TEXT_BG" fill-opacity="1.0" style="font-size: 30px; font-family: Inter, Segoe UI, Kalam, Roboto, Helvetica, Arial, sans-serif; font-weight: 700; letter-spacing:-0.4px;" data-final-font-size="30">
      <tspan x="1270.0" dy="28.25px">Hidden Corridors</tspan>
    </text>
    <text id="ITEM_1_BODY" x="1270.0" y="540.0" font-family="var(--font-body)" font-size="20" fill="var(--primary-text)" opacity="0.8" text-anchor="start" data-bg-id="ITEM_1_TEXT_BG" style="font-size: 26px; font-family: Inter, Segoe UI, Kalam, Roboto, Helvetica, Arial, sans-serif; font-weight: 400;" data-final-font-size="26">
      <tspan x="1270.0" dy="32.84px">Maps reveal infrastructure</tspan>
      <tspan x="1270.0" dy="29.90px">near quiet homes</tspan>
    </text>
    <circle id="ORBITAL_RINGS_ART_NODE_AURA_2" cx="646.6666666666667" cy="540.0" r="58" fill="var(--accent-6)" opacity="0.72" fill-opacity="1.0" stroke="var(--accent-6)" stroke-opacity="1.0"/>
    <circle id="ITEM_2_BORDER" cx="646.6666666666667" cy="540.0" r="42" fill="var(--icon-pad-bg)" stroke="var(--accent-6)" filter="url(#svg8ee03940-drop-shadow)" stroke-opacity="1.0"/>
    <circle id="ITEM_2_STROKE" cx="646.6666666666667" cy="540.0" r="34" fill="none" stroke="var(--accent-2)" stroke-width="3" stroke-dasharray="6 4" opacity="0.95"/>
    <!-- Node Icon Placeholder -->
    <circle id="ITEM_2_PAD" cx="650.67" cy="544.00" r="44.80" fill="var(--icon-pad-bg)" stroke="var(--primary-text)" stroke-width="2" opacity="0.9"/>
    <circle id="ITEM_2_PAD_INNER" cx="650.67" cy="544.00" r="34.94" fill="var(--accent-6)" fill-opacity="0.22"/>
    <g id="ITEM_2_ICON" transform="translate(622.6666666666667, 516.0)" data-icon-size="56" stroke-dasharray="6 4">
      <g transform="translate(-9.905355932203385,-9.905355932203385) scale(3.1587796610169487)" vector-effect="non-scaling-stroke" stroke-width="2.38" stroke-linecap="round" stroke-linejoin="round" stroke-opacity="1.0">
        <path d="M12 6v6l4 2" vector-effect="non-scaling-stroke" fill="none" stroke="#f1f5f9"/>
        <circle cx="12" cy="12" r="10" vector-effect="non-scaling-stroke" fill="none" stroke="#f1f5f9"/>
      </g>
    </g>
    <line x1="598.6666666666667" y1="540.0" x2="586.6666666666667" y2="540.0" stroke="var(--accent-2)" stroke-width="2" stroke-dasharray="2 2" opacity="0.5"/>
    <circle cx="586.6666666666667" cy="540.0" r="3" fill="var(--accent-2)"/>
    <!-- Node 2 Frames -->
    <rect id="ITEM_2_HEAD_FRAME" x="316.66666666666674" y="500.0" width="260" height="40" fill="none" pointer-events="none"/>
    <rect id="ITEM_2_BODY_FRAME" x="196.7" y="540.0" width="380" height="120" fill="none" pointer-events="none"/>
    <rect id="ITEM_2_TEXT_BG" x="178.7" y="486" width="416" height="192" rx="22" fill="var(--panel)" fill-opacity="0.94" stroke="var(--primary-text)" stroke-width="2"/>
    <text id="ITEM_2_HEAD" x="576.6666666666667" y="500.0" font-family="var(--font-heading)" font-weight="bold" font-size="28" fill="var(--accent-6)" text-anchor="end" data-bg-id="ITEM_2_TEXT_BG" fill-opacity="1.0" style="font-size: 30px; font-family: Inter, Segoe UI, Kalam, Roboto, Helvetica, Arial, sans-serif; font-weight: 700; letter-spacing:-0.4px;" data-final-font-size="30">
      <tspan x="576.6666666666667" dy="28.25px">Timing Patterns</tspan>
    </text>
    <text id="ITEM_2_BODY" x="576.7" y="540.0" font-family="var(--font-body)" font-size="20" fill="var(--primary-text)" opacity="0.8" text-anchor="end" data-bg-id="ITEM_2_TEXT_BG" style="font-size: 26px; font-family: Inter, Segoe UI, Kalam, Roboto, Helvetica, Arial, sans-serif; font-weight: 400;" data-final-font-size="26">
      <tspan x="576.7" dy="32.84px">Noise stops during maintenance</tspan>
      <tspan x="576.7" dy="29.90px">or valve ops</tspan>
    </text>
    <circle id="ORBITAL_RINGS_ART_NODE_AURA_3" cx="1208.5445424121285" cy="243.79614866066186" r="58" fill="var(--accent-1)" opacity="0.72" fill-opacity="1.0" stroke="var(--accent-1)" stroke-opacity="1.0"/>
    <circle id="ITEM_3_BORDER" cx="1208.5445424121285" cy="243.79614866066186" r="42" fill="var(--icon-pad-bg)" stroke="var(--accent-1)" filter="url(#svg8ee03940-drop-shadow)" stroke-opacity="1.0"/>
    <circle id="ITEM_3_STROKE" cx="1208.5445424121285" cy="243.79614866066186" r="34" fill="none" stroke="var(--accent-3)" stroke-width="3" stroke-dasharray="6 4" opacity="0.95"/>
    <!-- Node Icon Placeholder -->
    <circle id="ITEM_3_PAD" cx="1212.54" cy="247.80" r="44.80" fill="var(--icon-pad-bg)" stroke="var(--primary-text)" stroke-width="2" opacity="0.9"/>
    <circle id="ITEM_3_PAD_INNER" cx="1212.54" cy="247.80" r="34.94" fill="var(--accent-1)" fill-opacity="0.22"/>
    <g id="ITEM_3_ICON" transform="translate(1184.5445424121285, 219.79614866066186)" data-icon-size="56" stroke-dasharray="6 4">
      <g transform="translate(-11.935999999999995,-11.935999999999995) scale(2.4959999999999996)">
        <path d="M5 20.88C5 20.96 5.01 21 5.03 21H7.97C7.99 21 8 20.96 8 20.88V17L7.5 15.5L8 14V11L7.5 9.5L8 8V5L6.5 4.5L5 5V8L5.5 9.5L5 11V14L5.5 15.5L5 17V20.88ZM12 20.88C12 20.96 12.01 21 12.03 21H14.97C14.99 21 15 20.96 15 20.88V17L14.5 15.5L15 14V11L14.5 9.5L15 8V5L13.5 4.5L12 5V8L12.5 9.5L12 11V14V17V20.88ZM17.866 30H30V13.13C30 12.5 29.4887 12 28.8672 12H19.1328C18.5012 12 18 12.51 18 13.13V17L17.866 17.2167V30Z" fill="#D3D3D3"/>
        <path d="M2.20988 20.91L9.45534 17.28C9.70519 17.16 9.995 17.34 9.995 17.61V20.4C9.995 20.68 10.2848 20.86 10.5347 20.73L18 17V30H15.9671L13.4949 28.4635L11.0227 30H8.93989L6.43853 28.4635L3.93717 30H2V21.23C2 21.1 2.07996 20.97 2.20988 20.91Z" fill="#9B9B9B"/>
        <path d="M20 14.5C20 14.2239 20.2239 14 20.5 14H21.5C21.7761 14 22 14.2239 22 14.5V15.5C22 15.7761 21.7761 16 21.5 16H20.5C20.2239 16 20 15.7761 20 15.5V14.5Z" fill="#83CBFF"/>
        <path d="M20 17.5C20 17.2239 20.2239 17 20.5 17H21.5C21.7761 17 22 17.2239 22 17.5V18.5C22 18.7761 21.7761 19 21.5 19H20.5C20.2239 19 20 18.7761 20 18.5V17.5Z" fill="#83CBFF"/>
        <path d="M20 20.5C20 20.2239 20.2239 20 20.5 20H21.5C21.7761 20 22 20.2239 22 20.5V21.5C22 21.7761 21.7761 22 21.5 22H20.5C20.2239 22 20 21.7761 20 21.5V20.5Z" fill="#83CBFF"/>
        <path d="M23 14.5C23 14.2239 23.2239 14 23.5 14H24.5C24.7761 14 25 14.2239 25 14.5V15.5C25 15.7761 24.7761 16 24.5 16H23.5C23.2239 16 23 15.7761 23 15.5V14.5Z" fill="#83CBFF"/>
        <path d="M23 17.5C23 17.2239 23.2239 17 23.5 17H24.5C24.7761 17 25 17.2239 25 17.5V18.5C25 18.7761 24.7761 19 24.5 19H23.5C23.2239 19 23 18.7761 23 18.5V17.5Z" fill="#83CBFF"/>
        <path d="M23 20.5C23 20.2239 23.2239 20 23.5 20H24.5C24.7761 20 25 20.2239 25 20.5V21.5C25 21.7761 24.7761 22 24.5 22H23.5C23.2239 22 23 21.7761 23 21.5V20.5Z" fill="#83CBFF"/>
        <path d="M26 14.5C26 14.2239 26.2239 14 26.5 14H27.5C27.7761 14 28 14.2239 28 14.5V15.5C28 15.7761 27.7761 16 27.5 16H26.5C26.2239 16 26 15.7761 26 15.5V14.5Z" fill="#83CBFF"/>
        <path d="M26 17.5C26 17.2239 26.2239 17 26.5 17H27.5C27.7761 17 28 17.2239 28 17.5V18.5C28 18.7761 27.7761 19 27.5 19H26.5C26.2239 19 26 18.7761 26 18.5V17.5Z" fill="#83CBFF"/>
        <path d="M26 20.5C26 20.2239 26.2239 20 26.5 20H27.5C27.7761 20 28 20.2239 28 20.5V21.5C28 21.7761 27.7761 22 27.5 22H26.5C26.2239 22 26 21.7761 26 21.5V20.5Z" fill="#83CBFF"/>
        <path d="M21 30H27V26.3628C27 26.1623 26.8294 26 26.6187 26H21.3813C21.1706 26 21 26.1623 21 26.3628V30ZM9 30H4V27.38C4 27.17 4.17033 27 4.38075 27H8.61925C8.82967 27 9 27.17 9 27.38V30ZM16 30H11V27.38C11 27.17 11.1703 27 11.3808 27H15.6192C15.8297 27 16 27.17 16 27.38V30Z" fill="#1C1C1C"/>
        <path d="M8 2.51C8 2.23 7.77001 2 7.49001 2H5.51001C5.23001 2 5 2.23 5 2.51V5H8V2.51ZM8 14H5V17H8V14ZM5 8H8V11H5V8ZM15 2.51C15 2.23 14.77 2 14.49 2H12.51C12.23 2 12 2.23 12 2.51V5H15V2.51ZM15 8H12V11H15V8ZM12 14H15V17H12V14Z" fill="#F8312F"/>
      </g>
    </g>
    <line x1="1239.3983476770825" y1="207.0260153909509" x2="1268.5445424121285" y2="243.79614866066186" stroke="var(--accent-3)" stroke-width="2" stroke-dasharray="2 2" opacity="0.5"/>
    <circle cx="1268.5445424121285" cy="243.79614866066186" r="3" fill="var(--accent-3)"/>
    <!-- Node 3 Frames -->
    <rect id="ITEM_3_HEAD_FRAME" x="1278.5445424121285" y="203.79614866066186" width="260" height="40" fill="none" pointer-events="none"/>
    <rect id="ITEM_3_BODY_FRAME" x="1278.5" y="243.79614866066186" width="380" height="120" fill="none" pointer-events="none"/>
    <rect id="ITEM_3_TEXT_BG" x="1260.5" y="189.79614866066186" width="416" height="192" rx="22" fill="var(--panel)" fill-opacity="0.94" stroke="var(--primary-text)" stroke-width="2"/>
    <text id="ITEM_3_HEAD" x="1278.5445424121285" y="203.79614866066186" font-family="var(--font-heading)" font-weight="bold" font-size="28" fill="var(--primary-text)" text-anchor="start" data-bg-id="ITEM_3_TEXT_BG" fill-opacity="1.0" style="font-size: 28px; font-family: Inter, Segoe UI, Kalam, Roboto, Helvetica, Arial, sans-serif; font-weight: 700; letter-spacing:-0.4px;" data-final-font-size="28">
      <tspan x="1278.5445424121285" dy="26.30px">Industrial Activity</tspan>
    </text>
    <text id="ITEM_3_BODY" x="1278.5" y="243.79614866066186" font-family="var(--font-body)" font-size="20" fill="var(--primary-text)" opacity="0.8" text-anchor="start" data-bg-id="ITEM_3_TEXT_BG" style="font-size: 26px; font-family: Inter, Segoe UI, Kalam, Roboto, Helvetica, Arial, sans-serif; font-weight: 400;" data-final-font-size="26">
      <tspan x="1278.5" dy="32.84px">Vibrations spike during high</tspan>
      <tspan x="1278.5" dy="29.90px">gas demand</tspan>
    </text>
    <circle id="ORBITAL_RINGS_ART_NODE_AURA_4" cx="664.3176995441919" cy="892.3804438347299" r="58" fill="var(--accent-2)" opacity="0.72" fill-opacity="1.0" stroke="var(--accent-2)" stroke-opacity="1.0"/>
    <circle id="ITEM_4_BORDER" cx="664.3176995441919" cy="892.3804438347299" r="42" fill="var(--icon-pad-bg)" stroke="var(--accent-2)" filter="url(#svg8ee03940-drop-shadow)" stroke-opacity="1.0"/>
    <circle id="ITEM_4_STROKE" cx="664.3176995441919" cy="892.3804438347299" r="34" fill="none" stroke="var(--accent-4)" stroke-width="3" stroke-dasharray="6 4" opacity="0.95"/>
    <!-- Node Icon Placeholder -->
    <circle id="ITEM_4_PAD" cx="668.32" cy="896.38" r="44.80" fill="var(--icon-pad-bg)" stroke="var(--primary-text)" stroke-width="2" opacity="0.9"/>
    <circle id="ITEM_4_PAD_INNER" cx="668.32" cy="896.38" r="34.94" fill="var(--accent-2)" fill-opacity="0.22"/>
    <g id="ITEM_4_ICON" transform="translate(640.3176995441919, 868.3804438347299)" data-icon-size="56" stroke-dasharray="6 4">
      <g transform="translate(-10.558896551724132,-10.558896551724132) scale(3.2132413793103445)" vector-effect="non-scaling-stroke" stroke-width="2.38" stroke-linecap="round" stroke-linejoin="round" stroke-opacity="1.0">
        <path d="M6 6L18 6" stroke="#f1f5f9" vector-effect="non-scaling-stroke" fill="none"/>
        <path d="M6 10H18" stroke="#f1f5f9" vector-effect="non-scaling-stroke" fill="none"/>
        <path d="M13 14L18 14" stroke="#f1f5f9" vector-effect="non-scaling-stroke" fill="none"/>
        <path d="M13 18L18 18" stroke="#f1f5f9" vector-effect="non-scaling-stroke" fill="none"/>
        <path d="M2 21.4V2.6C2 2.26863 2.26863 2 2.6 2H21.4C21.7314 2 22 2.26863 22 2.6V21.4C22 21.7314 21.7314 22 21.4 22H2.6C2.26863 22 2 21.7314 2 21.4Z" stroke="#f1f5f9" vector-effect="non-scaling-stroke" fill="none"/>
        <path d="M6 18V14H9V18H6Z" stroke="#f1f5f9" vector-effect="non-scaling-stroke" fill="none"/>
      </g>
    </g>
    <line x1="633.463894279238" y1="929.1505771044409" x2="604.3176995441919" y2="892.3804438347299" stroke="var(--accent-4)" stroke-width="2" stroke-dasharray="2 2" opacity="0.5"/>
    <circle cx="604.3176995441919" cy="892.3804438347299" r="3" fill="var(--accent-4)"/>
    <!-- Node 4 Frames -->
    <rect id="ITEM_4_HEAD_FRAME" x="334.3176995441919" y="852.3804438347299" width="260" height="40" fill="none" pointer-events="none"/>
    <rect id="ITEM_4_BODY_FRAME" x="214.3" y="892.3804438347299" width="380" height="120" fill="none" pointer-events="none"/>
    <rect id="ITEM_4_TEXT_BG" x="196.3" y="838.3804438347299" width="416.0176995441919" height="192" rx="22" fill="var(--panel)" fill-opacity="0.94" stroke="var(--primary-text)" stroke-width="2"/>
    <text id="ITEM_4_HEAD" x="594.3176995441919" y="852.3804438347299" font-family="var(--font-heading)" font-weight="bold" font-size="28" fill="var(--accent-2)" text-anchor="end" data-bg-id="ITEM_4_TEXT_BG" fill-opacity="1.0" style="font-size: 30px; font-family: Inter, Segoe UI, Kalam, Roboto, Helvetica, Arial, sans-serif; font-weight: 700; letter-spacing:-0.4px;" data-final-font-size="30">
      <tspan x="594.3176995441919" dy="28.25px">Correlation Check</tspan>
    </text>
    <text id="ITEM_4_BODY" x="594.3" y="892.3804438347299" font-family="var(--font-body)" font-size="20" fill="var(--primary-text)" opacity="0.8" text-anchor="end" data-bg-id="ITEM_4_TEXT_BG" style="font-size: 26px; font-family: Inter, Segoe UI, Kalam, Roboto, Helvetica, Arial, sans-serif; font-weight: 400;" data-final-font-size="26">
      <tspan x="594.3" dy="32.84px">Complaint times match</tspan>
      <tspan x="594.3" dy="29.90px">compressor cycles</tspan>
    </text>
  </g>
</svg>
